PathFileType	4	(X/Y/Z)	C:\Users\86182\Documents\cortex\Trimmed_M3_L7.trc
DataRate	CameraRate	NumFrames	NumMarkers	Units	OrigDataRate	OrigDataStartFrame	OrigNumFrames
100.00	100.00	       87	2	mm	100.00	1	       901
Frame#	Time	gripper			box			
		X1	Y1	Z1	X2	Y2	Z2	

1	0.000	274.74182	148.79503	192.94270	277.40530	147.06100	57.60387	
2	0.010	274.75549	148.81137	192.95042	277.40530	147.06100	57.60387	
3	0.020	274.75137	148.81320	192.95567	277.40530	147.06100	57.60387	
4	0.030	274.75189	148.81139	192.95325	277.40530	147.06100	57.60387	
5	0.040	274.77298	148.82787	192.95535	277.40530	147.06100	57.60387	
6	0.050	274.78568	148.83527	192.95375	277.40530	147.06100	57.60387	
7	0.060	274.77625	148.84259	192.96928	277.40530	147.06100	57.60387	
8	0.070	274.80869	148.82304	192.93074	277.40530	147.06100	57.60387	
9	0.080	274.73932	148.80408	192.95483	277.40530	147.06100	57.60387	
10	0.090	274.79050	148.84444	192.96030	277.40530	147.06100	57.60387	
11	0.100	274.77359	148.83887	192.96722	277.40530	147.06100	57.60387	
12	0.110	274.75449	148.81502	192.95531	277.40530	147.06100	57.60387	
13	0.120	274.74857	148.79688	192.93951	277.40530	147.06100	57.60387	
14	0.130	274.75601	148.80664	192.94757	277.40530	147.06100	57.60387	
15	0.140	274.76279	148.81143	192.94479	277.41409	147.05891	57.59935	
16	0.150	274.78259	148.80626	192.92357	277.41409	147.05891	57.59935	
17	0.160	274.74231	148.79323	192.94031	277.40530	147.06100	57.60387	
18	0.170	274.73984	148.80226	192.95239	277.40530	147.06100	57.60387	
19	0.180	274.79535	148.81369	192.92197	277.44507	147.05215	57.58282	
20	0.190	274.78195	148.80605	192.92856	277.42288	147.05804	57.59367	
21	0.200	274.78735	148.84261	192.96069	277.40530	147.06100	57.60387	
22	0.210	274.77216	148.80434	192.92955	277.41849	147.05786	57.59708	
23	0.220	274.74286	148.79143	192.93791	277.40530	147.06100	57.60387	
24	0.230	274.76590	148.81149	192.94093	277.40530	147.06100	57.60387	
25	0.240	274.76056	148.77872	192.92427	277.40530	147.06100	57.60387	
26	0.250	274.75735	148.79158	192.92673	277.40530	147.06100	57.60387	
27	0.260	274.76917	148.81516	192.94398	277.40530	147.06100	57.60387	
28	0.270	274.79135	148.82808	192.94121	277.42294	147.05679	57.59480	
29	0.280	274.76996	148.79890	192.92516	277.40530	147.06100	57.60387	
30	0.290	274.75647	148.80777	192.94559	277.40530	147.06100	57.60387	
31	0.300	274.77576	148.80437	192.92676	277.40530	147.06100	57.60387	
32	0.310	274.79340	148.82085	192.93156	277.40970	147.06026	57.60133	
33	0.320	274.76431	148.80310	192.93713	277.43616	147.05580	57.58596	
34	0.330	274.77216	148.80434	192.92955	277.40530	147.06100	57.60387	
35	0.340	274.75348	148.81866	192.96017	277.41409	147.05891	57.59935	
36	0.350	274.76047	148.79340	192.92636	277.40530	147.06100	57.60387	
37	0.360	274.78342	148.80319	192.94556	277.40530	147.06100	57.60387	
38	0.370	274.76678	148.79706	192.92557	277.42731	147.05669	57.59168	
39	0.380	274.73984	148.80226	192.95239	277.41711	147.06052	57.60016	
40	0.390	274.77496	148.82060	192.94562	277.40530	147.06100	57.60387	
41	0.400	274.77130	148.82057	192.94846	277.40530	147.06100	57.60387	
42	0.410	274.75589	148.79694	192.93391	277.40970	147.06026	57.60133	
43	0.420	274.78894	148.80995	192.92278	277.40970	147.06026	57.60133	
44	0.430	274.75418	148.78972	192.92715	277.40530	147.06100	57.60387	
45	0.440	274.78064	148.81342	192.93317	277.43170	147.05655	57.58854	
46	0.450	274.75702	148.80594	192.94315	277.44058	147.05701	57.59070	
47	0.460	274.76581	148.80063	192.93036	277.43619	147.05426	57.58739	
48	0.470	274.78030	148.82793	192.94968	277.43030	147.05830	57.59250	
49	0.480	274.76697	148.80966	192.93954	277.40530	147.06100	57.60387	
50	0.490	274.78885	148.78929	192.91989	277.40530	147.06100	57.60387	
51	0.500	274.78568	148.83527	192.95375	277.40530	147.06100	57.60387	
52	0.510	274.77377	148.81154	192.93637	277.41409	147.05891	57.59935	
53	0.520	274.76428	148.80602	192.93755	277.41690	147.05602	57.60001	
54	0.530	274.76910	148.81219	192.94359	277.42337	147.06703	57.61243	
55	0.540	274.79401	148.83170	192.94321	277.40530	147.06100	57.60387	
56	0.550	274.77798	148.80980	192.93115	277.41846	147.05878	57.59623	
57	0.560	274.79739	148.81021	192.92514	277.41708	147.06052	57.60477	
58	0.570	274.78888	148.83713	192.95335	277.42325	147.06477	57.61002	
59	0.580	274.77878	148.83340	192.95700	277.40530	147.06100	57.60387	
60	0.590	274.76968	148.81331	192.94154	277.40530	147.06100	57.60387	
61	0.600	274.76974	148.80756	192.93962	277.40530	147.06100	57.60387	
62	0.610	274.76181	148.81505	192.94963	277.40530	147.06100	57.60387	
63	0.620	274.79874	148.82816	192.93555	277.40530	147.06100	57.60387	
64	0.630	274.77167	148.80614	192.93195	277.40530	147.06100	57.60387	
65	0.640	274.75665	148.82053	192.95978	277.43622	147.05363	57.58797	
66	0.650	274.78796	148.81354	192.92757	277.42007	147.06091	57.60218	
67	0.660	274.77078	148.82239	192.95088	277.40530	147.06100	57.60387	
68	0.670	274.79752	148.81911	192.92638	277.40530	147.06100	57.60387	
69	0.680	274.79977	148.82455	192.93077	277.43353	147.06290	57.60419	
70	0.690	274.76019	148.80779	192.94273	277.41409	147.05891	57.59935	
71	0.700	274.78098	148.84503	192.95647	277.40530	147.06100	57.60387	
72	0.710	274.79236	148.82445	192.93636	277.44519	147.05664	57.59222	
73	0.720	274.78888	148.83713	192.95335	277.40530	147.06100	57.60387	
74	0.730	274.74432	148.78606	192.93071	277.41849	147.05786	57.59708	
75	0.740	274.74393	148.80046	192.94716	277.41129	147.06300	57.60670	
76	0.750	274.75687	148.79337	192.92912	277.40530	147.06100	57.60387	
77	0.760	274.79288	148.82266	192.93396	277.40530	147.06100	57.60387	
78	0.770	274.76724	148.83517	192.96802	277.40530	147.06100	57.60387	
79	0.780	274.77597	148.81697	192.94077	277.40530	147.06100	57.60387	
80	0.790	274.80060	148.84821	192.95665	277.40530	147.06100	57.60387	
81	0.800	274.77597	148.81697	192.94077	277.42731	147.05730	57.59109	
82	0.810	274.76996	148.79890	192.92516	277.40530	147.06100	57.60387	
83	0.820	274.75137	148.81320	192.95567	277.40530	147.06100	57.60387	
84	0.830	274.78064	148.81342	192.93317	277.40530	147.06100	57.60387	
85	0.840	274.78430	148.81349	192.93036	277.41129	147.06300	57.60670	
86	0.850	274.79123	148.81918	192.93997	277.40970	147.05995	57.60161	
87	0.860	274.81042	148.84605	192.94264	277.40970	147.05995	57.60161	
